<svg width="376" height="344" viewBox="0 0 376 344" fill="none" xmlns="http://www.w3.org/2000/svg">
<path d="M69.9245 0.669891L60.8852 10.6893H10.0393L1 0.669891H69.9245Z" fill="white"/>
<path d="M251.84 339.66L250.71 343H260.879L259.749 339.66H251.84Z" fill="white"/>
<path d="M69.9245 0.669891H369.35V69.1359L363.701 77.4854V97.5243L369.35 102.534V239.466H375V267.854L369.35 277.874V343H260.879M69.9245 0.669891L60.8852 10.6893H10.0393L1 0.669891M69.9245 0.669891H1M1 0.669891V145.951L5.51964 162.65V214.417L1 222.767V343H25.858H250.71M250.71 343L251.84 339.66H259.749L260.879 343M250.71 343H260.879" stroke="white" stroke-width="1.29003"/>
</svg>
