<svg width="1440" height="1028" viewBox="0 0 1440 1028" fill="none" xmlns="http://www.w3.org/2000/svg">
<path d="M-24.9999 -9.5L1706 -9.5M-24.9999 4.5H1706M-24.9999 18.5H1706M-24.9999 32.5H1706M-24.9999 46.5H1706M-24.9999 60.5H1706M-24.9999 74.5H1706M-24.9999 88.5H1706M-24.9999 102.5H1706M-24.9999 116.5H1706M-24.9999 130.5H1706M-24.9999 144.5H1706M-24.9999 158.5H1706M-24.9999 172.5H1706M-24.9999 186.5H1706M-24.9999 200.5H1706M-24.9999 214.5H1706M-24.9999 228.5H1706M-24.9999 242.5H1706M-24.9999 256.5H1706M-24.9999 270.5H1706M-24.9999 284.5H1706M-24.9999 298.5H1706M-24.9999 312.5H1706M-24.9999 326.5H1706M-24.9999 340.5H1706M-24.9999 354.5H1706M-24.9999 368.5H1706M-24.9999 382.5H1706M-24.9999 396.5H1706M-24.9999 410.5H1706M-24.9999 424.5H1706M-24.9999 438.5H1706M-24.9999 452.5H1706M-24.9999 466.5H1706M-24.9999 480.5H1706M-24.9999 494.5H1706M-24.9999 508.5H1706M-24.9999 522.5H1706M-24.9999 536.5H1706M-24.9999 550.5H1706M-24.9999 564.5H1706M-24.9999 578.5H1706M-24.9999 592.5H1706M-24.9999 606.5H1706M-24.9999 620.5H1706M-24.9999 634.5H1706M-24.9999 648.5H1706M-24.9999 662.5H1706M-24.9999 676.5H1706M-24.9999 690.5H1706M-24.9999 704.5H1706M-24.9999 718.5H1706M-24.9999 732.5H1706M-24.9999 746.5H1706M-24.9999 760.5H1706M-24.9999 774.5H1706M-24.9999 788.5H1706M-24.9999 802.5H1706M-24.9999 816.5H1706M-24.9999 830.5H1706M-24.9999 844.5H1706M-24.9999 858.5H1706M-24.9999 872.5H1706M-24.9999 886.5H1706M-24.9999 900.5H1706M-24.9999 914.5H1706M-24.9999 928.5H1706M-24.9999 942.5H1706M-24.9999 956.5H1706M-24.9999 970.5H1706M-24.9999 984.5H1706M-24.9999 998.5H1706M-24.9999 1012.5H1706M-24.9999 1026.5H1706M-24.5 -9L-24.5 1028M-10.4999 -9L-10.5 1028M3.50014 -9L3.50009 1028M17.5002 -9L17.5001 1028M31.5002 -9L31.5002 1028M45.5003 -9L45.5002 1028M59.5003 -9L59.5003 1028M73.5004 -9L73.5003 1028M87.5004 -9L87.5004 1028M101.5 -9L101.5 1028M115.501 -9L115.5 1028M129.501 -9L129.501 1028M143.501 -9L143.501 1028M157.501 -9L157.501 1028M171.501 -9L171.501 1028M185.501 -9L185.501 1028M199.501 -9L199.501 1028M213.501 -9L213.501 1028M227.501 -9L227.501 1028M241.501 -9L241.501 1028M255.501 -9L255.501 1028M269.501 -9L269.501 1028M283.501 -9L283.501 1028M297.501 -9L297.501 1028M311.501 -9L311.501 1028M325.501 -9L325.501 1028M339.501 -9L339.501 1028M353.501 -9L353.501 1028M367.501 -9L367.501 1028M381.502 -9L381.501 1028M395.502 -9L395.502 1028M409.502 -9L409.502 1028M423.502 -9L423.502 1028M437.502 -9L437.502 1028M451.502 -9L451.502 1028M465.502 -9L465.502 1028M479.502 -9L479.502 1028M493.502 -9L493.502 1028M507.502 -9L507.502 1028M521.502 -9L521.502 1028M535.502 -9L535.502 1028M549.502 -9L549.502 1028M563.502 -9L563.502 1028M577.502 -9L577.502 1028M591.502 -9L591.502 1028M605.503 -9L605.502 1028M619.503 -9L619.503 1028M633.503 -9L633.503 1028M647.503 -9L647.503 1028M661.503 -9L661.503 1028M675.503 -9L675.503 1028M689.503 -9L689.503 1028M703.503 -9L703.503 1028M717.503 -9L717.503 1028M731.503 -9L731.503 1028M745.503 -9L745.503 1028M759.503 -9L759.503 1028M773.503 -9L773.503 1028M787.503 -9L787.503 1028M801.503 -9L801.503 1028M815.503 -9L815.503 1028M829.503 -9L829.503 1028M843.504 -9L843.503 1028M857.504 -9L857.504 1028M871.504 -9L871.504 1028M885.504 -9L885.504 1028M899.504 -9L899.504 1028M913.504 -9L913.504 1028M927.504 -9L927.504 1028M941.504 -9L941.504 1028M955.504 -9L955.504 1028M969.504 -9L969.504 1028M983.504 -9L983.504 1028M997.504 -9L997.504 1028M1011.5 -9L1011.5 1028M1025.5 -9L1025.5 1028M1039.5 -9L1039.5 1028M1053.5 -9L1053.5 1028M1067.5 -9L1067.5 1028M1081.5 -9L1081.5 1028M1095.5 -9L1095.5 1028M1109.5 -9L1109.5 1028M1123.5 -9L1123.5 1028M1137.5 -9L1137.5 1028M1151.5 -9L1151.5 1028M1165.5 -9L1165.5 1028M1179.5 -9L1179.5 1028M1193.5 -9L1193.5 1028M1207.5 -9L1207.5 1028M1221.5 -9L1221.5 1028M1235.5 -9L1235.5 1028M1249.5 -9L1249.5 1028M1263.5 -9L1263.5 1028M1277.5 -9L1277.5 1028M1291.5 -9L1291.5 1028M1305.5 -9L1305.5 1028M1319.5 -9L1319.5 1028M1333.5 -9L1333.5 1028M1347.5 -9L1347.5 1028M1361.5 -9L1361.5 1028M1375.5 -9L1375.5 1028M1389.5 -9L1389.5 1028M1403.5 -9L1403.5 1028M1417.5 -9L1417.5 1028M1431.5 -9L1431.5 1028M1445.5 -9L1445.5 1028M1459.5 -9L1459.5 1028M1473.5 -9L1473.5 1028M1487.5 -9L1487.5 1028M1501.5 -9L1501.5 1028M1515.5 -9L1515.5 1028M1529.5 -9L1529.5 1028M1543.5 -9L1543.5 1028M1557.5 -9L1557.5 1028M1571.5 -9L1571.5 1028M1585.5 -9L1585.5 1028M1599.5 -9L1599.5 1028M1613.5 -9L1613.5 1028M1627.5 -9L1627.5 1028M1641.5 -9L1641.5 1028M1655.5 -9L1655.5 1028M1669.5 -9L1669.5 1028M1683.5 -9L1683.5 1028M1697.5 -9L1697.5 1028M1711.5 -9L1711.5 1028" stroke="#1C1C1C"/>
</svg>
