<?xml version="1.0" encoding="UTF-8"?>
<svg id="Layer_2" data-name="Layer 2" xmlns="http://www.w3.org/2000/svg" viewBox="0 0 776.31 84.65">
  <defs>
    <style>
      .cls-1 {
        fill: #fff;
      }
    </style>
  </defs>
  <g id="Layer_1-2" data-name="Layer 1">
    <path class="cls-1" d="M767.77,69.6c-3.19,1-6.5,1.55-9.84,1.62-3.02-.09-5.95-1.11-8.37-2.93-8.94-6.3-10.66-7.65-15.72-12.12-1.61-1.42-.39-2.18,.93-2.72,1.86-.79,3.77-1.47,5.71-2.04,3.77-1.17,6.49-.98,8.53,.14,1.7,.93,10.66,5.01,12.16-2.26,.97-7.08-11.08-7.36-11.08-7.36-3.63-.17-7.26-.13-10.89,.14-4.63,.39-14.15,1.36-20.73,4.72-4.76,2.32-3.55-.83-2.09-2.52,1.46-1.69,20.41-23.32,28.5-32.07,4.46-4.83,.52-5.21-.68-5.1-.4,.03-2.72,.05-14.81,2.25-16.52,3-24.92,11.71-29.89,17.17-12.32,13.55-21.46,26.5-27.54,34.64-1.41,1.9-20.22,10.09-28.1,11.4-7.68,1.28-2-5.08-2-5.08,0,0,19.05-22.02,23.75-27.39,4.57-5.22-2.59-6-5.06-6.08-3.78-.12-24.95-.57-44.28,.81-63.28,4.51-82.96,30.62-82.96,30.62,0,0-27.74,6.59-32.35,6.97s-2.95-2.6-2.44-3.26c.26-.33,22.15-29.03,22.99-30.01,.64-.62,1.48-.97,2.37-.98,0,0,20.84,.14,23.63,.14s4.93-1.36,4.76-4.89c-.21-4.2-4.69-4.12-6.17-4.21-1.36-.08-7.82-.33-12.85-.41-3.91-.06-1.25-2.79-1.25-2.79,0,0,8.44-9.99,12.78-14.73,3.48-3.8,.46-4.23-2.31-4-1.04,.08-4.5,.43-11.18,1.36-24.35,3.53-33.14,17.47-34.25,19.02-1.12,1.54-1.61,1.39-2.22,1.41-.44,0-20.85-.16-24.2,0-2.39,.1-5.69,.72-5.7,4.39,0,4.63,6.57,4.4,7.76,4.46,1.18,.05,10.1,.47,12.89,.52,2.25,.04,1.8,.8,1.47,1.26-1.56,2.12-7.33,9.9-11.06,14.97-2.04,2.76-2.83,3.4-5.36,4.32-28.62,10.5-54.49,14.97-75.43,14.02-10.89-.51-9.23-6.29-9.23-6.29,0,0,37.97-.31,58.93-7.97,21.26-7.77,23.74-24.39-10.57-25.05-41.97,.46-65.46,14.14-73.35,19.98-3.87,2.86-5.44,5.13-9.19,10.52-2.72,3.97-19.73,7.55-24.32,8.6-4.59,1.05-1.26-3.14-1.26-3.14l13.61-18.67s10.61-13.42-9.12-16.51c-24.2-3.78-50.52,6.97-57.89,10.49-4.08,1.96-3.45-.12-1.78-2.15,11.77-14.29,20.68-24.16,27.32-31.72,2.56-2.92,1.61-4.44-1.84-4.25-5.4,.46-10.77,1.18-16.09,2.18-16.74,2.96-25.94,12.59-30.57,19.11-2.16,3.14-17.77,23.78-19.6,26.2-2.29,3.31-6.38,4.88-6.38,4.88,0,0-25.38,11.95-75.91,14.68-28.63,.96-53.7-2.46-69.69-7.04-19.87-5.68-25.43-17.23-1.67-31.14,30.74-17.98,58.92-22.01,79.84-23.93,24.42-2.24,41.18,.72,49.81,2.34,10.73,2.04,24.78-1.5,30.23-4.81,3.62-2.2,3.1-3.68,1.2-4.57-1.28-.59-3.83-.98-5.4-1.16-9.09-1.05-41-5.18-86.22-2.87C83.37,3.89,2.08,25.5,.04,52.4c-3.02,39.72,165.08,37.53,216.42,21.26,4.23-1.36,3.23,.29,2.72,1.26-.63,1.16-.68,1.2-2.84,4.61-1.69,2.65-.42,3.99,1.54,3.95,1.95-.03,19.43-.88,22.37-1.16,2.94-.28,4.64-2.49,5.44-3.49,2.94-3.61,4.7-5.91,7.55-8.74,8.61-8.57,43.93-22.82,52.17-23.56,4.91-.44,3.03,1.49,2.5,2.25-.53,.76-13.43,18.18-14.39,19.86-.96,1.68-3.8,5.4-2.37,8.53,6.89,14.22,61.41-.6,61.92-.68,.68-.14,1.44-.62,5.06,1.36,28.32,15.59,100.49-3.61,103.7-4.73,2.72-.68,2.48,.39,2.55,1.82,.18,3.87,9.01,16.62,63.44,1.67,3.36-1.04,3.69-.05,3.69-.05,.89,1.48,3.59,7.26,24.83,6.73,24.82-.61,44.67-8.7,48.99-10.71,3.31-1.53,3.27,.8,3.25,2.04-.14,8.49,17.79,9.53,32.9,7.59,7.78-1,12.25-2.01,14.15-3.07,1.9-1.06,2.72-1.01,2.91,.53,.23,2.1,3.18,1.89,5.74,1.91,1.84,0,18.13-.32,20.36-.37,3.8-.07,4.31-.35,8-5.49,2.84-3.95,6.28-9.21,8.1-11.57,1.36-1.96,2.95-1.07,3.27-.91,.32,.16,22.99,13.32,33.23,17.56,7.31,3.03,18.19,1.99,25.98-.1,7.79-2.09,10.46-4.64,10.46-4.64,0,0,4.17-3.62,2.04-6.42-2.24-2.78-5.53-.92-7.93-.07m-379.3-12.25c1.12-.95,16.87-13.83,41.12-14.64,2.33-.08,7.14,.5,3.69,4.26-4.44,4.83-22.25,10.74-43.55,12.25-2.61,.22-2.94-.44-1.3-1.86h.03Zm238.54-8.46c-6.01,5.44-37.91,22.15-58.93,23.28-5.28,.27-3.97-3.4-2.56-5.02,.21-.25,19.81-24.22,56.2-22.96,0,0,9.53,.51,5.29,4.71"/>
  </g>
</svg>